<?xml version="1.0" encoding="utf-8"?>
<!-- Generator: Adobe Illustrator 24.3.0, SVG Export Plug-In . SVG Version: 6.00 Build 0)  -->
<svg version="1.1" id="Capa_1" xmlns="http://www.w3.org/2000/svg" xmlns:xlink="http://www.w3.org/1999/xlink" x="0px" y="0px"
	 viewBox="0 0 1024 768" style="enable-background:new 0 0 1024 768;" xml:space="preserve">
<style type="text/css">
	.st0{fill:#EE151F;}
	.st1{fill:#1D1D1B;stroke:#FFFFFF;stroke-width:7.7281;stroke-linejoin:round;stroke-miterlimit:10;}
	.st2{fill:#FFEC00;stroke:#FFFFFF;stroke-width:7.7281;stroke-linejoin:round;stroke-miterlimit:10;}
	.st3{fill:none;stroke:#FFFFFF;stroke-width:7.7281;stroke-linejoin:round;stroke-miterlimit:10;}
	.st4{fill:#1D1D1B;}
	.st5{fill:#FFEC00;}
	.st6{fill:#FFFFFF;}
	.st7{fill:#FCEA1B;}
</style>
<g>
	<ellipse transform="matrix(0.866 -0.5 0.5 0.866 -122.719 310.0063)" class="st0" cx="517.1" cy="384" rx="164.5" ry="108.3"/>
	<g>
		<g>
			<g>
				<polygon class="st1" points="548.7,303.7 558.1,292 636.2,263.6 644.1,285.2 634.6,296.9 591.2,312.7 598.3,331.3 641.1,315.7 
					649,337.3 639.6,349 608.5,360.3 617.5,384.1 674.5,363.4 682.3,385 672.9,396.6 593.1,425.7 				"/>
				<path class="st1" d="M672.9,396.6l-79.8,29.1l-44.4-122l78.1-28.4l7.9,21.6L579.4,317l9.5,26l42.9-15.6l7.9,21.6l-42.9,15.6
					l11.4,31.2l57-20.7L672.9,396.6z"/>
				<path class="st2" d="M682.3,385L602.5,414l-44.4-122l78.1-28.4l7.9,21.6l-55.3,20.1l9.5,26l42.9-15.6l7.9,21.6l-42.9,15.6
					l11.4,31.2l57-20.7L682.3,385z"/>
				<path class="st3" d="M682.3,385L602.5,414l-44.4-122l78.1-28.4l7.9,21.6l-55.3,20.1l9.5,26l42.9-15.6l7.9,21.6l-42.9,15.6
					l11.4,31.2l57-20.7L682.3,385z"/>
			</g>
			<g>
				<polygon class="st1" points="523.4,442.8 513.9,454.5 491.6,462.6 447.2,340.6 456.7,328.9 478.6,320.9 559.4,380.8 
					521.3,313.6 530.8,302 553.1,293.9 597.5,415.9 588,427.5 569.7,434.2 483.5,370.8 				"/>
				<path class="st1" d="M588,427.5l-18.3,6.7l-86.2-63.4l30.4,83.7l-22.3,8.1l-44.4-122l22-8l80.8,59.8l-28.7-78.8l22.3-8.1
					L588,427.5z"/>
				<path class="st2" d="M597.5,415.9l-18.3,6.7l-86.2-63.4l30.4,83.7l-22.3,8.1l-44.4-122l22-8l80.8,59.8L530.8,302l22.3-8.1
					L597.5,415.9z"/>
				<path class="st3" d="M597.5,415.9l-18.3,6.7l-86.2-63.4l30.4,83.7l-22.3,8.1l-44.4-122l22-8l80.8,59.8L530.8,302l22.3-8.1
					L597.5,415.9z"/>
			</g>
			<g>
				<path class="st1" d="M466.7,454.7c-6.9,15.7-19.2,26.7-36.9,33.2c-8.7,3.2-17.3,4.6-25.8,4.3c-8.5-0.3-16.4-2.3-23.8-6
					c-7.4-3.6-14-8.8-19.8-15.5c-5.8-6.7-10.4-14.8-13.9-24.4c-3.5-9.5-5.1-18.7-4.9-27.6c0.2-8.9,1.9-17.1,5.2-24.6
					c3.3-7.5,8-14.1,14.3-19.8c6.3-5.7,13.8-10.1,22.5-13.3c8.7-3.2,17.3-4.6,25.8-4.2c8.5,0.4,16.4,2.4,23.8,6
					c7.4,3.6,14,8.8,19.8,15.5c5.8,6.7,10.4,14.8,13.8,24.2C473.8,421.6,473.7,439,466.7,454.7z M422.1,384.2
					c-9-5.5-19.2-6.1-30.7-1.9c-5.8,2.1-10.6,5-14.2,8.6c-3.7,3.7-6.4,7.9-8,12.6c-1.7,4.8-2.4,10-2,15.8c0.3,5.8,1.6,11.8,3.9,18.1
					c2.3,6.3,5.2,11.8,8.6,16.4c3.5,4.6,7.4,8.2,11.7,10.8c4.4,2.6,9.1,4.1,14.3,4.5c5.2,0.4,10.6-0.4,16.5-2.5
					c5.8-2.1,10.5-5,14.2-8.6c3.7-3.6,6.3-7.9,8-12.6c1.7-4.8,2.4-10,2-15.8c-0.3-5.8-1.6-11.8-3.9-18.1
					C437.9,398.8,431.1,389.7,422.1,384.2z"/>
				<path class="st2" d="M476.2,443c-6.9,15.7-19.2,26.7-36.9,33.2c-8.7,3.2-17.3,4.6-25.8,4.3c-8.5-0.3-16.4-2.3-23.8-6
					c-7.4-3.6-14-8.8-19.8-15.5c-5.8-6.7-10.4-14.8-13.9-24.4c-3.5-9.5-5.1-18.7-4.9-27.6c0.2-8.9,1.9-17.1,5.2-24.6
					c3.3-7.5,8-14.1,14.3-19.8c6.3-5.7,13.8-10.1,22.5-13.3s17.3-4.6,25.8-4.2c8.5,0.4,16.4,2.4,23.8,6c7.4,3.6,14,8.8,19.8,15.5
					c5.8,6.7,10.4,14.8,13.8,24.2C483.2,409.9,483.2,427.3,476.2,443z M431.5,372.5c-9-5.5-19.2-6.1-30.7-1.9
					c-5.8,2.1-10.6,5-14.2,8.6c-3.7,3.7-6.4,7.9-8,12.6c-1.7,4.8-2.4,10-2,15.8c0.3,5.8,1.6,11.8,3.9,18.1
					c2.3,6.3,5.2,11.8,8.6,16.4c3.5,4.6,7.4,8.2,11.7,10.8c4.4,2.6,9.1,4.1,14.3,4.5c5.2,0.4,10.6-0.4,16.5-2.5
					c5.8-2.1,10.5-5,14.2-8.6c3.7-3.6,6.3-7.9,8-12.6c1.7-4.8,2.4-10,2-15.8c-0.3-5.8-1.6-11.8-3.9-18.1
					C447.3,387.2,440.5,378.1,431.5,372.5z"/>
				<path class="st3" d="M476.2,443c-6.9,15.7-19.2,26.7-36.9,33.2c-8.7,3.2-17.3,4.6-25.8,4.3c-8.5-0.3-16.4-2.3-23.8-6
					c-7.4-3.6-14-8.8-19.8-15.5c-5.8-6.7-10.4-14.8-13.9-24.4c-3.5-9.5-5.1-18.7-4.9-27.6c0.2-8.9,1.9-17.1,5.2-24.6
					c3.3-7.5,8-14.1,14.3-19.8c6.3-5.7,13.8-10.1,22.5-13.3s17.3-4.6,25.8-4.2c8.5,0.4,16.4,2.4,23.8,6c7.4,3.6,14,8.8,19.8,15.5
					c5.8,6.7,10.4,14.8,13.8,24.2C483.2,409.9,483.2,427.3,476.2,443z M431.5,372.5c-9-5.5-19.2-6.1-30.7-1.9
					c-5.8,2.1-10.6,5-14.2,8.6c-3.7,3.7-6.4,7.9-8,12.6c-1.7,4.8-2.4,10-2,15.8c0.3,5.8,1.6,11.8,3.9,18.1
					c2.3,6.3,5.2,11.8,8.6,16.4c3.5,4.6,7.4,8.2,11.7,10.8c4.4,2.6,9.1,4.1,14.3,4.5c5.2,0.4,10.6-0.4,16.5-2.5
					c5.8-2.1,10.5-5,14.2-8.6c3.7-3.6,6.3-7.9,8-12.6c1.7-4.8,2.4-10,2-15.8c-0.3-5.8-1.6-11.8-3.9-18.1
					C447.3,387.2,440.5,378.1,431.5,372.5z"/>
			</g>
		</g>
		<g>
			<polygon class="st4" points="548.7,303.7 558.1,292 636.2,263.6 644.1,285.2 634.6,296.9 591.2,312.7 598.3,331.3 641.1,315.7 
				649,337.3 639.6,349 608.5,360.3 617.5,384.1 674.5,363.4 682.3,385 672.9,396.6 593.1,425.7 			"/>
			<path class="st4" d="M672.9,396.6l-79.8,29.1l-44.4-122l78.1-28.4l7.9,21.6L579.4,317l9.5,26l42.9-15.6l7.9,21.6l-42.9,15.6
				l11.4,31.2l57-20.7L672.9,396.6z"/>
			<g>
				<polygon class="st5" points="561.4,293.6 634.7,266.9 640.8,283.7 585.5,303.8 596.7,334.6 639.6,319 645.7,335.8 602.8,351.4 
					615.9,387.4 672.9,366.7 679,383.4 604.1,410.7 				"/>
				<path class="st6" d="M633.1,270.2l4.3,11.9l-50.4,18.3l-4.8,1.8l1.8,4.8l9.5,26l1.8,4.8l4.8-1.8l38-13.8l4.3,11.9l-38,13.8
					l-4.8,1.8l1.8,4.8l11.4,31.2l1.8,4.8l4.8-1.8l52.1-19l4.3,11.9l-70.1,25.5l-40.9-112.3L633.1,270.2 M636.2,263.6L558.1,292
					l44.4,122l79.8-29.1l-7.9-21.6l-57,20.7l-11.4-31.2l42.9-15.6l-7.9-21.6l-42.9,15.6l-9.5-26l55.3-20.1L636.2,263.6L636.2,263.6z
					"/>
			</g>
			<g>
				<path class="st4" d="M634.7,266.9l6.1,16.8l-52.8,19.2l-2.4,0.9l0.9,2.4l9.5,26l0.9,2.4l2.4-0.9l40.5-14.7l6.1,16.8l-40.5,14.7
					l-2.4,0.9l0.9,2.4l11.4,31.2l0.9,2.4l2.4-0.9l54.6-19.9l6.1,16.8l-75,27.3l-42.6-117.2L634.7,266.9 M636.2,263.6L558.1,292
					l44.4,122l79.8-29.1l-7.9-21.6l-57,20.7l-11.4-31.2l42.9-15.6l-7.9-21.6l-42.9,15.6l-9.5-26l55.3-20.1L636.2,263.6L636.2,263.6z
					"/>
			</g>
		</g>
		<polygon class="st4" points="523.4,442.8 513.9,454.5 491.6,462.6 447.2,340.6 456.7,328.9 478.6,320.9 559.4,380.8 521.3,313.6 
			530.8,302 553.1,293.9 597.5,415.9 588,427.5 569.7,434.2 483.5,370.8 		"/>
		<path class="st4" d="M588,427.5l-18.3,6.7l-86.2-63.4l30.4,83.7l-22.3,8.1l-44.4-122l22-8l80.8,59.8l-28.7-78.8l22.3-8.1
			L588,427.5z"/>
		<g>
			<polygon class="st5" points="460,330.5 478.2,323.8 564.8,387.9 534.1,303.5 551.5,297.2 594.2,414.3 579.6,419.6 487.6,352.1 
				520.1,441.3 502.6,447.6 			"/>
			<path class="st6" d="M550,300.5l40.9,112.3l-10.9,4L496,355l-13.7-10.1l5.8,16l28.7,78.8l-12.6,4.6L463.3,332l14.5-5.3l78.6,58.2
				l13.8,10.2l-5.9-16.1l-26.9-73.9L550,300.5 M553.1,293.9l-22.3,8.1l28.7,78.8l-80.8-59.8l-22,8l44.4,122l22.3-8.1l-30.4-83.7
				l86.2,63.4l18.3-6.7L553.1,293.9L553.1,293.9z"/>
		</g>
		<g>
			<path class="st4" d="M551.5,297.2l42.6,117.2l-14.6,5.3l-85.1-62.5l-6.9-5l2.9,8l29.6,81.2l-17.5,6.4L460,330.5l18.2-6.6l79.7,59
				l6.9,5.1l-2.9-8l-27.8-76.4L551.5,297.2 M553.1,293.9l-22.3,8.1l28.7,78.8l-80.8-59.8l-22,8l44.4,122l22.3-8.1l-30.4-83.7
				l86.2,63.4l18.3-6.7L553.1,293.9L553.1,293.9z"/>
		</g>
		<path class="st4" d="M466.7,454.7c-6.9,15.7-19.2,26.7-36.9,33.2c-8.7,3.2-17.3,4.6-25.8,4.3c-8.5-0.3-16.4-2.3-23.8-6
			c-7.4-3.6-14-8.8-19.8-15.5c-5.8-6.7-10.4-14.8-13.9-24.4c-3.5-9.5-5.1-18.7-4.9-27.6c0.2-8.9,1.9-17.1,5.2-24.6
			c3.3-7.5,8-14.1,14.3-19.8c6.3-5.7,13.8-10.1,22.5-13.3c8.7-3.2,17.3-4.6,25.8-4.2c8.5,0.4,16.4,2.4,23.8,6
			c7.4,3.6,14,8.8,19.8,15.5c5.8,6.7,10.4,14.8,13.8,24.2C473.8,421.6,473.7,439,466.7,454.7z M422.1,384.2
			c-9-5.5-19.2-6.1-30.7-1.9c-5.8,2.1-10.6,5-14.2,8.6c-3.7,3.7-6.4,7.9-8,12.6c-1.7,4.8-2.4,10-2,15.8c0.3,5.8,1.6,11.8,3.9,18.1
			c2.3,6.3,5.2,11.8,8.6,16.4c3.5,4.6,7.4,8.2,11.7,10.8c4.4,2.6,9.1,4.1,14.3,4.5c5.2,0.4,10.6-0.4,16.5-2.5
			c5.8-2.1,10.5-5,14.2-8.6c3.7-3.6,6.3-7.9,8-12.6c1.7-4.8,2.4-10,2-15.8c-0.3-5.8-1.6-11.8-3.9-18.1
			C437.9,398.8,431.1,389.7,422.1,384.2z"/>
		<g>
			<path class="st7" d="M415.9,477.9c-0.8,0-1.6,0-2.3,0c-8.1-0.3-15.7-2.2-22.7-5.7c-7-3.5-13.4-8.5-18.9-14.9
				c-5.6-6.4-10.1-14.4-13.4-23.5c-3.3-9.2-4.9-18.2-4.8-26.7c0.2-8.5,1.8-16.5,5-23.6c3.1-7.1,7.7-13.5,13.7-18.9
				c6-5.5,13.3-9.8,21.6-12.8c7.4-2.7,14.9-4.1,22.1-4.1c0.9,0,1.8,0,2.7,0.1c8.1,0.4,15.8,2.3,22.8,5.8c7,3.5,13.4,8.5,18.9,14.9
				c5.6,6.4,10.1,14.3,13.4,23.4c6.7,18.3,6.6,35.2-0.1,50.2c-6.6,15-18.5,25.6-35.4,31.8C430.8,476.5,423.3,477.9,415.9,477.9z
				 M415.1,365.3c-4.8,0-9.9,1-15.1,2.9c-6.1,2.2-11.2,5.3-15.2,9.2c-3.9,3.9-6.8,8.5-8.6,13.6c-1.8,5.1-2.5,10.7-2.2,16.8
				c0.3,6,1.7,12.3,4.1,18.8c2.4,6.5,5.4,12.2,9,17c3.6,4.9,7.8,8.7,12.5,11.5c4.7,2.8,9.8,4.4,15.4,4.9c0.9,0.1,1.9,0.1,2.9,0.1
				c4.6,0,9.6-0.9,14.7-2.8c6.1-2.2,11.2-5.3,15.2-9.2c3.9-3.9,6.8-8.5,8.6-13.6c1.8-5.1,2.5-10.7,2.2-16.8
				c-0.3-6-1.7-12.3-4.1-18.8c-4.8-13.1-12-22.7-21.4-28.6C427.4,367,421.4,365.3,415.1,365.3z"/>
			<path class="st6" d="M416.1,345.1l0,5.2h0c0.9,0,1.7,0,2.6,0.1c7.7,0.4,15.1,2.2,21.8,5.5c6.7,3.3,12.8,8.1,18.1,14.3
				c5.4,6.2,9.7,13.8,12.9,22.6c6.5,17.9,6.5,33.7,0,48.3c-6.4,14.5-17.5,24.4-33.9,30.4c-7.3,2.6-14.5,4-21.6,4c-0.7,0-1.5,0-2.2,0
				c-7.7-0.3-15-2.1-21.7-5.4c-6.7-3.3-12.8-8.1-18.1-14.3c-5.4-6.2-9.7-13.8-13-22.7c-3.2-8.9-4.8-17.5-4.6-25.7
				c0.2-8.2,1.8-15.8,4.7-22.6c2.9-6.8,7.3-12.9,13-18.1c5.8-5.2,12.7-9.4,20.8-12.3c7.1-2.6,14.3-3.9,21.2-3.9L416.1,345.1
				 M417.7,462.7c4.9,0,10.2-1,15.5-2.9c6.5-2.4,11.9-5.7,16.1-9.8c4.2-4.2,7.3-9.1,9.3-14.6c1.9-5.4,2.7-11.4,2.3-17.8
				c-0.3-6.2-1.8-12.8-4.2-19.6c-5-13.7-12.5-23.7-22.5-29.9c-5.9-3.6-12.3-5.4-19.1-5.4c-5.1,0-10.5,1-16,3
				c-6.5,2.4-11.9,5.7-16.1,9.8c-4.2,4.2-7.3,9.1-9.3,14.6c-1.9,5.4-2.7,11.4-2.3,17.8c0.3,6.2,1.8,12.8,4.2,19.6
				c2.5,6.7,5.6,12.7,9.3,17.7c3.9,5.1,8.3,9.2,13.2,12.1c5,3,10.5,4.7,16.5,5.2C415.7,462.7,416.7,462.7,417.7,462.7 M416.1,345.1
				c-7.6,0-15.3,1.4-23,4.2c-8.7,3.2-16.2,7.6-22.5,13.3c-6.3,5.7-11,12.3-14.3,19.8c-3.3,7.5-5,15.7-5.2,24.6
				c-0.2,8.9,1.5,18.1,4.9,27.6c3.5,9.5,8.1,17.6,13.9,24.4c5.8,6.7,12.4,11.9,19.8,15.5c7.4,3.6,15.3,5.6,23.8,6c0.8,0,1.6,0,2.4,0
				c7.7,0,15.5-1.4,23.4-4.3c17.7-6.4,30-17.5,36.9-33.2c7-15.7,7.1-33.1,0.2-52.2c-3.4-9.4-8-17.5-13.8-24.2
				c-5.8-6.7-12.4-11.9-19.8-15.5c-7.4-3.6-15.3-5.6-23.8-6C418,345.1,417,345.1,416.1,345.1L416.1,345.1z M417.7,457.6
				c-0.9,0-1.8,0-2.7-0.1c-5.2-0.4-9.9-1.9-14.3-4.5c-4.4-2.6-8.3-6.2-11.7-10.8c-3.5-4.6-6.3-10.1-8.6-16.4
				c-2.3-6.3-3.6-12.3-3.9-18.1c-0.3-5.8,0.4-11,2-15.8c1.7-4.8,4.4-9,8-12.6c3.7-3.6,8.4-6.5,14.2-8.6c5-1.8,9.7-2.7,14.3-2.7
				c5.9,0,11.4,1.5,16.4,4.6c9,5.6,15.8,14.7,20.4,27.3c2.3,6.3,3.6,12.3,3.9,18.1c0.3,5.8-0.4,11-2,15.8c-1.7,4.8-4.4,9-8,12.6
				c-3.7,3.7-8.4,6.5-14.2,8.6C426.7,456.7,422.1,457.6,417.7,457.6L417.7,457.6z"/>
		</g>
		<g>
			<path class="st4" d="M416.1,345.1v2.6c0.9,0,1.8,0,2.7,0.1c8.1,0.4,15.8,2.3,22.8,5.8c7,3.5,13.4,8.5,18.9,14.9
				c5.6,6.4,10.1,14.3,13.4,23.4c6.7,18.3,6.6,35.2-0.1,50.2c-6.6,14.9-18.5,25.6-35.4,31.8c-7.6,2.8-15.1,4.1-22.5,4.1
				c-0.8,0-1.6,0-2.3,0c-8.1-0.3-15.7-2.2-22.7-5.7c-7-3.5-13.4-8.5-18.9-14.9c-5.6-6.4-10.1-14.4-13.4-23.5
				c-3.3-9.2-4.9-18.2-4.8-26.7c0.2-8.5,1.8-16.5,5-23.6c3.1-7.1,7.7-13.5,13.7-18.9c6-5.5,13.3-9.8,21.6-12.8
				c7.4-2.7,14.9-4.1,22.1-4.1L416.1,345.1 M417.7,460.2c4.6,0,9.6-0.9,14.7-2.8c6.1-2.2,11.2-5.3,15.2-9.2
				c3.9-3.9,6.8-8.5,8.6-13.6c1.8-5.1,2.5-10.7,2.2-16.8c-0.3-6-1.7-12.3-4.1-18.8c-4.8-13.1-12-22.7-21.5-28.6
				c-5.5-3.3-11.4-5-17.8-5c-4.8,0-9.9,1-15.1,2.9c-6.1,2.2-11.2,5.3-15.2,9.2c-3.9,3.9-6.8,8.5-8.6,13.6
				c-1.8,5.1-2.5,10.7-2.2,16.8c0.3,6,1.7,12.3,4.1,18.8c2.4,6.5,5.4,12.2,9,17c3.6,4.9,7.8,8.7,12.5,11.5c4.7,2.8,9.8,4.4,15.4,4.9
				C415.8,460.1,416.8,460.2,417.7,460.2 M416.1,345.1c-7.6,0-15.3,1.4-23,4.2c-8.7,3.2-16.2,7.6-22.5,13.3
				c-6.3,5.7-11,12.3-14.3,19.8c-3.3,7.5-5,15.7-5.2,24.6c-0.2,8.9,1.5,18.1,4.9,27.6c3.5,9.5,8.1,17.6,13.9,24.4
				c5.8,6.7,12.4,11.9,19.8,15.5c7.4,3.6,15.3,5.6,23.8,6c0.8,0,1.6,0,2.4,0c7.7,0,15.5-1.4,23.4-4.3c17.7-6.4,30-17.5,36.9-33.2
				c7-15.7,7.1-33.1,0.2-52.2c-3.4-9.4-8-17.5-13.8-24.2c-5.8-6.7-12.4-11.9-19.8-15.5c-7.4-3.6-15.3-5.6-23.8-6
				C418,345.1,417,345.1,416.1,345.1L416.1,345.1z M417.7,457.6c-0.9,0-1.8,0-2.7-0.1c-5.2-0.4-9.9-1.9-14.3-4.5
				c-4.4-2.6-8.3-6.2-11.7-10.8c-3.5-4.6-6.3-10.1-8.6-16.4c-2.3-6.3-3.6-12.3-3.9-18.1c-0.3-5.8,0.4-11,2-15.8
				c1.7-4.8,4.4-9,8-12.6c3.7-3.6,8.4-6.5,14.2-8.6c5-1.8,9.7-2.7,14.3-2.7c5.9,0,11.4,1.5,16.4,4.6c9,5.6,15.8,14.7,20.4,27.3
				c2.3,6.3,3.6,12.3,3.9,18.1c0.3,5.8-0.4,11-2,15.8c-1.7,4.8-4.4,9-8,12.6c-3.7,3.7-8.4,6.5-14.2,8.6
				C426.7,456.7,422.1,457.6,417.7,457.6L417.7,457.6z"/>
		</g>
	</g>
</g>
</svg>
