<svg id="Capa_1" data-name="Capa 1" xmlns="http://www.w3.org/2000/svg" viewBox="0 0 133.62 58.42"><defs><style>.cls-1,.cls-4{fill:#1d1d1b;}.cls-1,.cls-2,.cls-3{stroke:#fff;stroke-linejoin:round;stroke-width:3px;}.cls-2,.cls-5{fill:#ffed00;}.cls-3{fill:none;}.cls-6{fill:#fff;}.cls-7{fill:#fdeb1d;}</style></defs><polygon class="cls-1" points="94.15 5.51 99.15 2.51 131.4 2.51 131.4 11.44 126.4 14.44 108.48 14.44 108.58 22.16 126.29 22.16 126.29 31.09 121.29 34.09 108.48 34.09 108.58 43.98 132.12 43.98 132.12 52.91 127.12 55.91 94.15 55.91 94.15 5.51"/><path class="cls-1" d="M481.26,324.34h-33v-50.4h32.26v8.93H457.71v10.72h17.72v8.93H457.71v12.89h23.55Z" transform="translate(-354.13 -268.43)"/><path class="cls-2" d="M486.26,321.34h-33v-50.4h32.26v8.93H462.71v10.72h17.72v8.93H462.71v12.89h23.55Z" transform="translate(-354.13 -268.43)"/><path class="cls-3" d="M486.26,321.34h-33v-50.4h32.26v8.93H462.71v10.72h17.72v8.93H462.71v12.89h23.55Z" transform="translate(-354.13 -268.43)"/><polygon class="cls-1" points="66.46 52.91 61.46 55.91 52.24 55.91 52.24 5.51 57.24 2.51 66.32 2.51 87.84 35.05 82.84 5.51 87.84 2.51 97.06 2.51 97.06 52.91 92.06 55.91 84.5 55.91 61.46 21.35 66.46 52.91"/><path class="cls-1" d="M446.19,324.34h-7.56l-23-34.56v34.56h-9.21v-50.4h9.07L437,306.48V273.94h9.21Z" transform="translate(-354.13 -268.43)"/><path class="cls-2" d="M451.19,321.34h-7.56l-23-34.56v34.56h-9.21v-50.4h9.07L442,303.48V270.94h9.21Z" transform="translate(-354.13 -268.43)"/><path class="cls-3" d="M451.19,321.34h-7.56l-23-34.56v34.56h-9.21v-50.4h9.07L442,303.48V270.94h9.21Z" transform="translate(-354.13 -268.43)"/><path class="cls-1" d="M398.33,318.15q-6.91,7.2-17.86,7.2a26,26,0,0,1-10-1.88,22.6,22.6,0,0,1-7.88-5.32,24.32,24.32,0,0,1-5.15-8.28,30.09,30.09,0,0,1-1.84-10.73,29.4,29.4,0,0,1,1.88-10.73,24.89,24.89,0,0,1,5.14-8.28,22.45,22.45,0,0,1,7.85-5.33,26,26,0,0,1,10-1.87,25.72,25.72,0,0,1,10,1.91,23.21,23.21,0,0,1,7.88,5.36,24.48,24.48,0,0,1,5.15,8.28,29.85,29.85,0,0,1,1.83,10.66Q405.31,310.95,398.33,318.15Zm-6.91-31.66c-2.55-3.19-6.19-4.78-10.95-4.78a15,15,0,0,0-6.33,1.27,12.78,12.78,0,0,0-4.61,3.54,15.51,15.51,0,0,0-2.84,5.5,26.35,26.35,0,0,0,0,14.24,15.46,15.46,0,0,0,2.84,5.49,12.92,12.92,0,0,0,4.61,3.55,16.56,16.56,0,0,0,12.67,0,13,13,0,0,0,4.61-3.55,15.62,15.62,0,0,0,2.84-5.49,24.52,24.52,0,0,0,1-7.12Q395.23,291.33,391.42,286.49Z" transform="translate(-354.13 -268.43)"/><path class="cls-2" d="M403.33,315.15q-6.91,7.2-17.86,7.2a26,26,0,0,1-10-1.88,22.6,22.6,0,0,1-7.88-5.32,24.32,24.32,0,0,1-5.15-8.28,30.09,30.09,0,0,1-1.84-10.73,29.4,29.4,0,0,1,1.88-10.73,24.89,24.89,0,0,1,5.14-8.28,22.45,22.45,0,0,1,7.85-5.33,26,26,0,0,1,10-1.87,25.72,25.72,0,0,1,10,1.91,23.21,23.21,0,0,1,7.88,5.36,24.48,24.48,0,0,1,5.15,8.28,29.85,29.85,0,0,1,1.83,10.66Q410.31,307.95,403.33,315.15Zm-6.91-31.66c-2.55-3.19-6.19-4.78-10.95-4.78a15,15,0,0,0-6.33,1.27,12.78,12.78,0,0,0-4.61,3.54,15.51,15.51,0,0,0-2.84,5.5,26.35,26.35,0,0,0,0,14.24,15.46,15.46,0,0,0,2.84,5.49,12.92,12.92,0,0,0,4.61,3.55,16.56,16.56,0,0,0,12.67,0,13,13,0,0,0,4.61-3.55,15.62,15.62,0,0,0,2.84-5.49,24.52,24.52,0,0,0,1-7.12Q400.23,288.33,396.42,283.49Z" transform="translate(-354.13 -268.43)"/><path class="cls-3" d="M403.33,315.15q-6.91,7.2-17.86,7.2a26,26,0,0,1-10-1.88,22.6,22.6,0,0,1-7.88-5.32,24.32,24.32,0,0,1-5.15-8.28,30.09,30.09,0,0,1-1.84-10.73,29.4,29.4,0,0,1,1.88-10.73,25,25,0,0,1,5.14-8.28,22.45,22.45,0,0,1,7.85-5.33,26,26,0,0,1,10-1.87,25.72,25.72,0,0,1,10,1.91,23.21,23.21,0,0,1,7.88,5.36,24.48,24.48,0,0,1,5.15,8.28,29.85,29.85,0,0,1,1.83,10.66Q410.31,307.95,403.33,315.15Zm-6.91-31.66c-2.55-3.19-6.19-4.78-10.95-4.78a15,15,0,0,0-6.33,1.27,12.78,12.78,0,0,0-4.61,3.54,15.51,15.51,0,0,0-2.84,5.5,26.35,26.35,0,0,0,0,14.24,15.59,15.59,0,0,0,2.84,5.5,13,13,0,0,0,4.61,3.54,16.56,16.56,0,0,0,12.67,0,13.1,13.1,0,0,0,4.61-3.54,15.76,15.76,0,0,0,2.84-5.5,24.52,24.52,0,0,0,1-7.12Q400.23,288.33,396.42,283.49Z" transform="translate(-354.13 -268.43)"/><polygon class="cls-4" points="94.15 5.51 99.15 2.51 131.4 2.51 131.4 11.44 126.4 14.44 108.48 14.44 108.58 22.16 126.29 22.16 126.29 31.09 121.29 34.09 108.48 34.09 108.58 43.98 132.12 43.98 132.12 52.91 127.12 55.91 94.15 55.91 94.15 5.51"/><path class="cls-4" d="M481.26,324.34h-33v-50.4h32.26v8.93H457.71v10.72h17.72v8.93H457.71v12.89h23.55Z" transform="translate(-354.13 -268.43)"/><polygon class="cls-5" points="100.15 51.91 100.15 3.51 130.4 3.51 130.4 10.44 107.58 10.44 107.58 23.16 125.29 23.16 125.29 30.09 107.58 30.09 107.58 44.98 131.12 44.98 131.12 51.91 100.15 51.91"/><path class="cls-6" d="M483.54,272.94v4.93H460.71v14.72h17.72v4.93H460.71v16.89h23.55v4.93h-29v-46.4h28.26m2-2H453.28v50.4h33v-8.93H462.71V299.52h17.72v-8.93H462.71V279.87h22.83v-8.93Z" transform="translate(-354.13 -268.43)"/><path class="cls-4" d="M484.54,271.94v6.93H461.71v12.72h17.72v6.93H461.71v14.89h23.55v6.93h-31v-48.4h30.26m1-1H453.28v50.4h33v-8.93H462.71V299.52h17.72v-8.93H462.71V279.87h22.83v-8.93Z" transform="translate(-354.13 -268.43)"/><polygon class="cls-4" points="66.46 52.91 61.46 55.91 52.24 55.91 52.24 5.51 57.24 2.51 66.32 2.51 87.84 35.05 82.84 5.51 87.84 2.51 97.06 2.51 97.06 52.91 92.06 55.91 84.5 55.91 61.46 21.35 66.46 52.91"/><path class="cls-4" d="M446.19,324.34h-7.56l-23-34.56v34.56h-9.21v-50.4h9.07L437,306.48V273.94h9.21Z" transform="translate(-354.13 -268.43)"/><polygon class="cls-5" points="90.03 51.91 65.46 15.04 65.46 51.91 58.24 51.91 58.24 3.51 65.78 3.51 88.84 38.38 88.84 3.51 96.06 3.51 96.06 51.91 90.03 51.91"/><path class="cls-6" d="M449.19,272.94v46.4H444.7l-22.44-33.67-3.67-5.5v39.17h-5.21v-46.4h6l20.93,31.65,3.67,5.54V272.94h5.21m2-2H442v32.54l-21.53-32.54h-9.07v50.4h9.21V286.78l23,34.56h7.56v-50.4Z" transform="translate(-354.13 -268.43)"/><path class="cls-4" d="M450.19,271.94v48.4h-6l-22.74-34.12-1.84-2.74v36.86h-7.21v-48.4h7.53L441.14,304l1.84,2.78V271.94h7.21m1-1H442v32.54l-21.53-32.54h-9.07v50.4h9.21V286.78l23,34.56h7.56v-50.4Z" transform="translate(-354.13 -268.43)"/><path class="cls-4" d="M398.33,318.15q-6.91,7.2-17.86,7.2a26,26,0,0,1-10-1.88,22.6,22.6,0,0,1-7.88-5.32,24.32,24.32,0,0,1-5.15-8.28,30.09,30.09,0,0,1-1.84-10.73,29.4,29.4,0,0,1,1.88-10.73,25,25,0,0,1,5.14-8.28,22.45,22.45,0,0,1,7.85-5.33,26,26,0,0,1,10-1.87,25.72,25.72,0,0,1,10,1.91,23.21,23.21,0,0,1,7.88,5.36,24.48,24.48,0,0,1,5.15,8.28,29.85,29.85,0,0,1,1.83,10.66Q405.31,310.95,398.33,318.15Zm-6.91-31.66c-2.55-3.19-6.19-4.78-10.95-4.78a15,15,0,0,0-6.33,1.27,12.78,12.78,0,0,0-4.61,3.54,15.51,15.51,0,0,0-2.84,5.5,26.35,26.35,0,0,0,0,14.24,15.59,15.59,0,0,0,2.84,5.5,13,13,0,0,0,4.61,3.54,16.56,16.56,0,0,0,12.67,0,13.1,13.1,0,0,0,4.61-3.54,15.76,15.76,0,0,0,2.84-5.5,24.52,24.52,0,0,0,1-7.12Q395.23,291.33,391.42,286.49Z" transform="translate(-354.13 -268.43)"/><path class="cls-7" d="M385.47,321.35a25.23,25.23,0,0,1-9.59-1.8,21.85,21.85,0,0,1-7.54-5.09,23.66,23.66,0,0,1-4.94-7.95,29.19,29.19,0,0,1-1.77-10.37,28.49,28.49,0,0,1,1.81-10.37,24.15,24.15,0,0,1,4.94-7.95,21.41,21.41,0,0,1,7.5-5.09,26.24,26.24,0,0,1,19.18,0,22.18,22.18,0,0,1,7.55,5.13,23.48,23.48,0,0,1,4.93,7.95,28.77,28.77,0,0,1,1.77,10.3c0,7.56-2.25,13.73-6.7,18.31S392.45,321.35,385.47,321.35Zm0-43.64a16,16,0,0,0-6.75,1.36,14,14,0,0,0-5,3.82,16.53,16.53,0,0,0-3,5.84,27.43,27.43,0,0,0,0,14.82,16.61,16.61,0,0,0,3,5.84,14,14,0,0,0,5,3.82,17.58,17.58,0,0,0,13.51,0,14,14,0,0,0,5-3.82,16.61,16.61,0,0,0,3-5.84,25.78,25.78,0,0,0,1-7.41c0-5.41-1.35-9.88-4-13.27S390.52,277.71,385.47,277.71Z" transform="translate(-354.13 -268.43)"/><path class="cls-6" d="M385.47,271.93a23.87,23.87,0,0,1,9.21,1.75,21.28,21.28,0,0,1,7.21,4.91,22.46,22.46,0,0,1,4.72,7.6,28,28,0,0,1,1.7,9.95c0,7.4-2.1,13.16-6.42,17.62s-9.62,6.59-16.42,6.59a24.05,24.05,0,0,1-9.21-1.73,20.83,20.83,0,0,1-7.2-4.86,22.41,22.41,0,0,1-4.72-7.61,28.1,28.1,0,0,1-1.71-10,27.66,27.66,0,0,1,1.74-10,23.14,23.14,0,0,1,4.74-7.62,20.4,20.4,0,0,1,7.15-4.86,24.24,24.24,0,0,1,9.21-1.72m0,43.63a17,17,0,0,0,7.18-1.45A14.75,14.75,0,0,0,398,310a17.64,17.64,0,0,0,3.22-6.18,26.75,26.75,0,0,0,1.05-7.7c0-5.64-1.42-10.32-4.25-13.9s-7.14-5.53-12.51-5.53a17,17,0,0,0-7.17,1.45,15,15,0,0,0-5.31,4.09,17.77,17.77,0,0,0-3.22,6.19,28.5,28.5,0,0,0,0,15.4A17.79,17.79,0,0,0,373,310a14.87,14.87,0,0,0,5.32,4.09,17,17,0,0,0,7.17,1.45m0-45.63a26,26,0,0,0-10,1.87,22.45,22.45,0,0,0-7.85,5.33,25,25,0,0,0-5.14,8.28,29.4,29.4,0,0,0-1.88,10.73,30.09,30.09,0,0,0,1.84,10.73,24.32,24.32,0,0,0,5.15,8.28,22.6,22.6,0,0,0,7.88,5.32,26,26,0,0,0,10,1.88q10.95,0,17.86-7.2t7-19a29.85,29.85,0,0,0-1.83-10.66,24.48,24.48,0,0,0-5.15-8.28,23.21,23.21,0,0,0-7.88-5.36,25.72,25.72,0,0,0-10-1.91Zm0,43.63a15,15,0,0,1-6.33-1.26,13,13,0,0,1-4.61-3.54,15.59,15.59,0,0,1-2.84-5.5,26.35,26.35,0,0,1,0-14.24,15.51,15.51,0,0,1,2.84-5.5,12.78,12.78,0,0,1,4.61-3.54,15,15,0,0,1,6.33-1.27c4.76,0,8.4,1.59,10.95,4.78s3.81,7.44,3.81,12.65a24.52,24.52,0,0,1-1,7.12,15.76,15.76,0,0,1-2.84,5.5,13.1,13.1,0,0,1-4.61,3.54,15,15,0,0,1-6.34,1.26Z" transform="translate(-354.13 -268.43)"/><path class="cls-4" d="M385.47,270.93a24.86,24.86,0,0,1,9.59,1.83,22.18,22.18,0,0,1,7.55,5.13,23.48,23.48,0,0,1,4.93,7.95,28.77,28.77,0,0,1,1.77,10.3c0,7.56-2.25,13.73-6.7,18.31s-10.16,6.9-17.14,6.9a25.23,25.23,0,0,1-9.59-1.8,21.74,21.74,0,0,1-7.54-5.1,23.52,23.52,0,0,1-4.94-7.94,29.19,29.19,0,0,1-1.77-10.37,28.53,28.53,0,0,1,1.81-10.37,24.15,24.15,0,0,1,4.94-7.95,21.41,21.41,0,0,1,7.5-5.09,25,25,0,0,1,9.59-1.8m0,43.63a16,16,0,0,0,6.76-1.35,14,14,0,0,0,5-3.82,16.7,16.7,0,0,0,3-5.84,25.78,25.78,0,0,0,1-7.41c0-5.41-1.35-9.88-4-13.28s-6.68-5.15-11.73-5.15a16,16,0,0,0-6.75,1.36,13.86,13.86,0,0,0-5,3.82,16.61,16.61,0,0,0-3,5.84,27.43,27.43,0,0,0,0,14.82,16.61,16.61,0,0,0,3,5.84,13.86,13.86,0,0,0,5,3.82,16,16,0,0,0,6.75,1.35m0-44.63a26,26,0,0,0-10,1.87,22.45,22.45,0,0,0-7.85,5.33,25,25,0,0,0-5.14,8.28,29.4,29.4,0,0,0-1.88,10.73,30.09,30.09,0,0,0,1.84,10.73,24.32,24.32,0,0,0,5.15,8.28,22.6,22.6,0,0,0,7.88,5.32,26,26,0,0,0,10,1.88q10.95,0,17.86-7.2t7-19a29.85,29.85,0,0,0-1.83-10.66,24.48,24.48,0,0,0-5.15-8.28,23.21,23.21,0,0,0-7.88-5.36,25.72,25.72,0,0,0-10-1.91Zm0,43.63a15,15,0,0,1-6.33-1.26,13,13,0,0,1-4.61-3.54,15.59,15.59,0,0,1-2.84-5.5,26.35,26.35,0,0,1,0-14.24,15.51,15.51,0,0,1,2.84-5.5,12.78,12.78,0,0,1,4.61-3.54,15,15,0,0,1,6.33-1.27c4.76,0,8.4,1.6,10.95,4.78s3.81,7.44,3.81,12.65a24.47,24.47,0,0,1-1,7.12,15.76,15.76,0,0,1-2.84,5.5,13.1,13.1,0,0,1-4.61,3.54,15,15,0,0,1-6.34,1.26Z" transform="translate(-354.13 -268.43)"/></svg>